<svg clip-rule="evenodd" fill-rule="evenodd" stroke-linejoin="round" stroke-miterlimit="2" viewBox="0 0 560 400" xmlns="http://www.w3.org/2000/svg"><g fill="#ceb781" fill-rule="nonzero" transform="matrix(1.53061 0 0 1.53061 145 93.852)"><path d="m0 120.9h176.4v-.8h-176.4zm0-21.8v.8h176.4v-.8z"/><path d="m121.8 130.3c0-1.5 0-1.7-.6-1.8h-.4c-.1-.1-.1-.4 0-.4.8-.1 2-.1 3.1-.1s2 .2 2.6.5c.7.4 1.2 1.2 1.2 2.3 0 1.5-1 2.2-1.6 2.5-.1 0-.1.2 0 .3 1.1 2.1 1.8 3.5 2.4 4.1.4.4.6.4.7.4.1.1 0 .4 0 .4h-2.3s-.4-.5-1.2-2c-.4-.7-.7-1.5-1.1-2.2-.2-.5-.4-.5-.8-.5s-.4 0-.4.4v2c0 1.7.1 1.7.8 1.8h.3c.1.1.1.4 0 .5-1.2-.1-2.4-.1-3.6 0-.1-.1-.1-.3 0-.5h.3c.6-.1.8-.1.8-1.8zm1.6 2.3c0 .5 0 .5.6.5 1.3 0 1.9-.8 1.9-2.3 0-1.3-.7-2.3-1.9-2.3-.7 0-.7 0-.7.8.1 0 .1 3.3.1 3.3zm-103.9-3.4c0-.7 0-.7-.4-.7h-.8c-1.2 0-1.6.2-2.1 1.5-.1.1-.4 0-.4-.1.2-.8.4-1.6.5-2.4l.1-.1c.1 0 .1 0 .1.1.1.4.3.4 1.2.4h5.5c.7 0 .9 0 1-.4.1 0 .1-.1.2-.1s.1 0 .2.1c-.1.6-.2 2-.2 2.5-.1.1-.3.2-.4 0-.2-1.2-.4-1.5-1.9-1.5h-.8c-.4 0-.4 0-.4.7v6.8c0 1.7.1 1.7.8 1.8l.5.1c.1.1.1.4 0 .5h-4.1c-.1-.1-.1-.4 0-.5l.6-.1c.6-.1.8-.1.8-1.8zm10.2 4.1c-.7 0-.7 0-.7.5v2.3c0 1.7.1 1.7.8 1.8l.4.1c.1.1.1.4 0 .5h-3.6c-.1-.1-.1-.3 0-.5h.2c.6-.1.8-.2.8-1.8v-5.9c0-1.7-.1-1.7-.8-1.8h-.3c-.1-.1-.1-.4 0-.5h3.5c.1.1.1.4 0 .5h-.2c-.6.1-.8.1-.8 1.8v1.9c0 .4 0 .5.7.5h3.2c.7 0 .7 0 .7-.5v-1.9c0-1.7-.1-1.7-.8-1.8h-.3c-.1-.1-.1-.4 0-.5h3.5c.1.1.1.4 0 .5h-.2c-.6.1-.8.1-.8 1.8v5.9c0 1.7.1 1.7.8 1.8h.3c.1.1.1.4 0 .5h-3.6c-.1-.1-.1-.3 0-.5h.3c.6-.1.8-.1.8-1.8v-2.3c0-.4 0-.5-.7-.5-.1-.1-3.2-.1-3.2-.1zm9.9-3.1c0-1.7-.1-1.7-.8-1.8h-.2c-.1-.1-.1-.4 0-.5h6.2c.1.3.1 1.5.2 2.2-.1.1-.3.2-.4.1-.2-.9-.4-1.3-.8-1.4-.3-.1-.7-.1-1.1-.1h-.9c-.6 0-.6 0-.6.9v2.7c0 .4 0 .4.3.4h.6c1.2 0 1.4 0 1.5-.7l.1-.5c.1-.1.4-.1.4 0v3.3c-.1.1-.3.1-.4 0l-.1-.6c-.1-.7-.3-.7-1.5-.7h-.6c-.3 0-.3 0-.3.4v2c0 .8 0 1.4.2 1.6s.4.3 1.5.3c1.7 0 2-.4 2.5-1.7.1-.1.3-.1.4.1-.1.7-.4 1.9-.6 2.3h-6.8c-.1-.1-.1-.4 0-.5l.5-.1c.6-.1.8-.1.8-1.8zm16.5 3.1c-.7 0-.7 0-.7.5v2.3c0 1.7.1 1.7.8 1.8l.4.1c.1.1.1.4 0 .5h-3.6c-.1-.1-.1-.3 0-.5h.2c.6-.1.8-.2.8-1.8v-5.9c0-1.7-.1-1.7-.8-1.8h-.3c-.1-.1-.1-.4 0-.5h3.5c.1.1.1.4 0 .5h-.2c-.6.1-.8.1-.8 1.8v1.9c0 .4 0 .5.7.5h3.2c.7 0 .7 0 .7-.5v-1.9c0-1.7-.1-1.7-.8-1.8h-.3c-.1-.1-.1-.4 0-.5h3.5c.1.1.1.4 0 .5h-.2c-.6.1-.8.1-.8 1.8v5.9c0 1.7.1 1.7.8 1.8h.3c.1.1.1.4 0 .5h-3.6c-.1-.1-.1-.3 0-.5h.3c.6-.1.8-.1.8-1.8v-2.3c0-.4 0-.5-.7-.5h-3.2zm18.4-.1c0 3.1-2 5.5-4.7 5.5-3 0-4.8-2.5-4.8-5.3 0-3.2 2-5.6 4.8-5.6 3.1-.2 4.7 2.5 4.7 5.4m-7.7-.4c0 2.2.8 5.2 3.1 5.2 1.5 0 2.8-1.3 2.8-4.5 0-2.4-.9-5.2-3.1-5.2-1.4 0-2.8 1.1-2.8 4.5m12.9-3.6c0-.7 0-.7-.4-.7h-.8c-1.2 0-1.6.2-2.1 1.5-.1.1-.4 0-.4-.1.2-.8.4-1.6.5-2.4l.1-.1c.1 0 .1 0 .1.1.1.4.3.4 1.2.4h5.5c.7 0 .9 0 1-.4.1 0 .1-.1.2-.1s.1 0 .2.1c-.1.6-.2 2-.2 2.5-.1.1-.3.2-.4 0-.2-1.2-.4-1.5-1.9-1.5h-.8c-.3 0-.4 0-.4.7v6.8c0 1.7.1 1.7.8 1.8l.5.1c.1.1.1.4 0 .5h-4.1c-.1-.1-.1-.4 0-.5l.6-.1c.6-.1.8-.1.8-1.8zm8.7 1c0-1.7-.1-1.7-.8-1.8h-.2c-.1-.1-.1-.4 0-.5h6.1c.1.3.1 1.5.2 2.2-.1.1-.3.2-.4.1-.2-.9-.4-1.3-.8-1.4-.3-.1-.7-.1-1.1-.1h-.9c-.6 0-.6 0-.6.9v2.7c0 .4 0 .4.3.4h.6c1.2 0 1.4 0 1.5-.7l.1-.5c.1-.1.4-.1.4 0v3.3c-.1.1-.3.1-.4 0l-.1-.6c-.1-.7-.3-.7-1.5-.7h-.6c-.3 0-.3 0-.3.4v2c0 .8 0 1.4.2 1.6s.4.3 1.5.3c1.7 0 2-.4 2.5-1.7.1-.1.3-.1.4.1-.1.7-.4 1.9-.6 2.3h-6.8c-.1-.1-.1-.4 0-.5l.5-.1c.6-.1.8-.1.8-1.8zm11.3 5.5c0 .8 0 1.4.2 1.6s.4.3 1.5.3c1.5 0 1.7-.1 2.3-1.7.1-.1.3 0 .4.1-.1.7-.4 1.9-.6 2.3h-6.5c-.1-.1-.1-.4 0-.5l.4-.1c.6-.1.8-.1.8-1.8v-5.9c0-1.6-.1-1.7-.8-1.8l-.4-.1c-.1-.1-.1-.4 0-.5h3.7c.1.1.1.4 0 .5l-.3.1c-.6.1-.8.2-.8 1.8zm18 1c0 .6.1 1 .3 1.1v.2c-.1 0-.4 0-.6.1-.8.2-1.8.4-2.6.4-1.6 0-3.1-.5-4.1-1.7-.8-1-1.2-2.3-1.2-3.6s.4-2.7 1.2-3.7c1-1.2 2.4-1.9 4.3-1.9.6 0 1.3.1 1.8.2.3.1.7.1.9.1 0 .5.1 1.3.2 2.5-.1.2-.4.2-.4 0-.3-1.5-1.3-2.3-2.6-2.3-2.4 0-3.5 2-3.5 4.7 0 1.3.2 2.6 1 3.6.6.8 1.6 1.3 2.6 1.3.6 0 1-.1 1.2-.4.1-.1.1-.4.1-1v-.3c0-1.1 0-1.2-.9-1.4l-.5-.1c-.1-.1-.1-.4 0-.5h3.7c.1.1.1.3 0 .5h-.2c-.5.1-.6.2-.6 1.2zm22.6-3.5c0 3.1-2 5.5-4.7 5.5-3 0-4.8-2.5-4.8-5.3 0-3.2 2-5.6 4.8-5.6 3.1-.2 4.7 2.5 4.7 5.4m-7.7-.4c0 2.2.8 5.2 3.1 5.2 1.5 0 2.8-1.3 2.8-4.5 0-2.4-.9-5.2-3.1-5.2-1.4 0-2.8 1.1-2.8 4.5m10.9-2.6c0-1.7-.1-1.7-.8-1.8h-.2c-.1-.1-.1-.4 0-.4 1.2.1 2.4.1 3.5 0 .1.1.1.3 0 .4h-.3c-.6.1-.8.2-.8 1.8v3.6c0 2.2.6 4 2.4 4s2.5-1.6 2.5-4v-2c0-1.2 0-2.7-.3-3.1-.1-.2-.3-.3-.7-.4h-.3c-.1-.1-.1-.4 0-.4h2.9c.1.1.1.3 0 .4l-.3.1c-.3.1-.5.1-.6.4-.2.5-.2 1.9-.2 3.1v1.9c0 1.4-.2 2.8-.9 3.7s-1.7 1.2-2.6 1.2c-1.3 0-2.2-.3-2.8-1s-.9-1.8-.9-3.4zm12 .1c0-1.4 0-1.7-.6-1.8l-.5-.1c-.1-.1-.1-.4 0-.4.9-.1 1.8-.1 3-.1 1.3 0 2.2.2 2.8.6.7.5 1.1 1.3 1.1 2.4 0 2.4-2 3.1-3 3.1h-.3c-.1-.1-.1-.3 0-.4 1.2-.3 1.7-1.3 1.7-2.6s-.7-2.4-1.9-2.4c-.7 0-.7 0-.7.7v6.9c0 1.7.1 1.7.8 1.8l.5.1c.1.1.1.4 0 .5h-3.7c-.1-.1-.1-.4 0-.5h.2c.6-.1.8-.2.8-1.8zm-144-15.4c.1.1.1.4 0 .5h-3.4c-.1-.1-.2-.4 0-.5l.4-.1c.5-.1.6-.2.6-1.3v-6.5c-.4.9-.6 1.3-.8 2l-1.3 2.8c-.5 1.1-1.1 2.9-1.4 3.6-.1.1-.3.1-.3 0-.2-.9-.8-2.4-1.1-3.2l-1.2-3c-.3-.7-.5-1.4-.8-2.1 0 .8-.1 2-.1 2.7 0 1-.1 2.4-.1 3.7 0 1 0 1.3.6 1.4l.4.1c.1.1.1.4 0 .5-1-.1-1.9-.1-2.9 0-.1-.1-.1-.4 0-.5h.2c.6-.1.8-.3.8-1.3.1-1 .1-2 .2-3.7.1-1.1.1-2.4.1-3.4 0-.7-.2-1.1-.7-1.2l-.5-.1c-.1-.1-.1-.4.1-.5h2.7c.1 1 .4 1.8.7 2.6l1.5 3.7c.1.3.5 1.1.6 1.4.2-.5.4-.9.7-1.6l1.3-3c.4-1 .9-2 1.1-3h2.5c.1.1.2.4 0 .5l-.4.1c-.6.1-.7.4-.7 1.2 0 2.3 0 4.7.1 7 0 1.1.2 1.2.6 1.2.1-.1.5 0 .5 0zm5.3-3.5c-.4 0-.3 0-.5.4l-.6 1.9c-.3.9-.2 1 .3 1.1l.4.1c.1.1.1.4 0 .5h-2.7c-.1-.1-.1-.3 0-.5l.4-.1c.4-.1.5-.2.7-.7.2-.4.4-1.1.7-1.9l1.8-5.6c.2-.5.3-.9.3-1.2.5-.1.9-.8.9-.8.1 0 .2 0 .2.1.2.7.4 1.5.6 2.2l1.9 6.6c.3 1.1.4 1.2 1.1 1.3h.2c.1.1.1.4 0 .5h-3.4c-.1-.1-.1-.4 0-.5h.3c.5-.1.5-.2.4-.8l-.6-2.2c-.1-.4-.2-.4-.6-.4zm1.6-.7c.4 0 .4 0 .3-.4l-.6-1.9c-.2-.8-.3-1.1-.4-1.3-.1.1-.2.5-.4 1.3l-.6 1.9c-.1.5-.1.5.2.5.1-.1 1.5-.1 1.5-.1zm14.5 1.9v2.8c-.1.2-.3.2-.5.2-.2-.3-.6-.9-1.6-2.2l-3.2-4.2c-.9-1.2-1.3-1.8-1.5-2v4.1c0 1.2 0 2.6.2 3.1.1.2.4.3.7.4h.3c.1.1.1.4 0 .5h-2.9c-.1-.1-.1-.3 0-.5l.3-.1c.3 0 .5-.1.6-.4.2-.5.2-1.9.2-3.1v-3.8c0-1.2 0-1.5-.4-1.9-.1-.1-.5-.3-.7-.3h-.2c-.1-.1-.1-.4.1-.5.5.1 1.3 0 1.6 0h.9c.2.7 1.7 2.7 2.2 3.3l1.3 1.7c.6.7 1.8 2.4 2 2.5v-3.5c0-1.2 0-2.6-.3-3.1-.1-.2-.3-.3-.7-.4h-.3c-.1-.1-.1-.4 0-.5h2.9c.1.1.1.3 0 .5l-.3.1c-.3 0-.5.1-.6.4-.2.5-.2 1.9-.2 3.1.1 0 .1 3.8.1 3.8zm5-5.4c0-1.5 0-1.7-.6-1.8h-.3c-.1-.1-.1-.4 0-.4 1-.1 2-.1 3.4-.1 1.3 0 2.2.1 3.2.5 1.6.7 2.8 2.4 2.8 4.7 0 1.8-.7 3.6-2.4 4.6-1 .6-2.1.8-3.3.8-.8 0-1.5-.1-2-.1h-1.7c-.1-.1-.1-.3 0-.5h.3c.6-.1.8-.1.8-1.8-.2-.1-.2-5.9-.2-5.9zm1.6 5.2c0 1.5.1 2.4 1.5 2.4 2.4 0 3.5-2 3.5-4.7 0-3.1-1.5-4.7-3.8-4.7-.6 0-1 .1-1.1.2s-.1.4-.1 1.2zm10.8-1c-.3 0-.3 0-.5.4l-.6 1.9c-.3.9-.2 1 .3 1.1l.4.1c.1.1.1.4 0 .5h-2.7c-.1-.1-.1-.3 0-.5l.4-.1c.4-.1.5-.2.7-.7.2-.4.4-1.1.7-1.9l1.8-5.6c.2-.5.3-.9.3-1.2.5-.1.9-.8.9-.8.1 0 .2 0 .2.1.2.7.4 1.5.6 2.2l1.9 6.6c.3 1.1.4 1.2 1.1 1.3h.2c.1.1.1.4 0 .5h-3.4c-.1-.1-.1-.4 0-.5h.3c.5-.1.5-.2.3-.8l-.6-2.2c-.1-.4-.2-.4-.6-.4zm1.6-.7c.4 0 .4 0 .3-.4l-.6-1.9c-.2-.8-.3-1.1-.4-1.3-.1.1-.2.5-.4 1.3l-.6 1.9c-.1.5-.1.5.2.5.1-.1 1.5-.1 1.5-.1zm6.8-3.5c0-1.5 0-1.7-.6-1.8h-.3c-.1-.1-.1-.4 0-.4.8-.1 2-.1 3.1-.1s2 .2 2.6.5c.7.4 1.2 1.2 1.2 2.3 0 1.5-1 2.2-1.6 2.5-.1 0-.1.2 0 .3 1.1 2.1 1.8 3.5 2.4 4.1.4.4.6.4.7.4.1.1 0 .4 0 .4h-2.3s-.4-.5-1.2-2c-.4-.7-.7-1.5-1.1-2.2-.2-.5-.4-.5-.8-.5s-.4 0-.4.3v2c0 1.7.1 1.7.8 1.8h.3c.1.1.1.4 0 .5-1.2-.1-2.4-.1-3.6 0-.1-.1-.1-.3 0-.5h.3c.6-.1.8-.1.8-1.8-.3 0-.3-5.8-.3-5.8zm1.6 2.3c0 .5 0 .5.6.5 1.3 0 1.9-.8 1.9-2.3 0-1.3-.7-2.3-1.9-2.3-.7 0-.7 0-.7.8.1 0 .1 3.3.1 3.3zm45.7-2.3c0-1.5 0-1.7-.6-1.8h-.3c-.1-.1-.1-.4 0-.4.8-.1 2-.1 3.1-.1s2 .2 2.6.5c.7.4 1.2 1.2 1.2 2.3 0 1.5-1 2.2-1.6 2.5-.1 0-.1.2 0 .3 1.1 2.1 1.8 3.5 2.4 4.1.4.4.6.4.7.4.1.1 0 .4 0 .4h-2.3s-.4-.5-1.2-2c-.4-.7-.7-1.5-1.1-2.2-.2-.5-.4-.5-.8-.5s-.4 0-.4.3v2c0 1.7.1 1.7.8 1.8h.3c.1.1.1.4 0 .5-1.2-.1-2.4-.1-3.6 0-.1-.1-.1-.3 0-.5h.3c.6-.1.8-.1.8-1.8zm1.6 2.3c0 .5 0 .5.6.5 1.3 0 1.9-.8 1.9-2.3 0-1.3-.7-2.3-1.9-2.3-.7 0-.7 0-.7.8.1 0 .1 3.3.1 3.3zm-37 3.5c0 1.7.1 1.7.8 1.8h.3c.1.1.1.4 0 .5-1.2-.1-2.4-.1-3.6 0-.1-.1-.1-.3 0-.5h.3c.6-.1.8-.1.8-1.8v-5.9c0-1.7-.1-1.7-.8-1.8h-.3c-.1-.1-.1-.4 0-.5 1.2.1 2.4.1 3.6 0 .1.1.1.3 0 .5h-.3c-.6.1-.8.1-.8 1.8zm13-.4v2.8c-.1.2-.3.2-.5.2-.2-.3-.6-.9-1.6-2.2l-3.2-4.2c-.9-1.2-1.3-1.8-1.5-2v4.1c0 1.2 0 2.6.2 3.1.1.2.3.3.7.4h.3c.1.1.1.4 0 .5h-2.9c-.1-.1-.1-.3 0-.5l.3-.1c.3 0 .5-.1.6-.4.2-.5.2-1.9.2-3.1v-3.8c0-1.2 0-1.5-.4-1.9-.1-.1-.5-.3-.7-.3h-.2c-.1-.1-.1-.4.1-.5.5.1 1.3 0 1.6 0h.9c.2.7 1.7 2.7 2.2 3.3l1.3 1.7c.6.7 1.8 2.4 2 2.5v-3.5c0-1.2 0-2.6-.3-3.1-.1-.2-.3-.3-.7-.4h-.3c-.1-.1-.1-.4 0-.5h2.9c.1.1.1.3 0 .5l-.3.1c-.3 0-.5.1-.6.4-.2.5-.2 1.9-.2 3.1.1 0 .1 3.8.1 3.8zm18.4-2.5c0 3.1-2 5.4-4.7 5.4-3 0-4.8-2.5-4.8-5.3 0-3.2 2-5.6 4.8-5.6 3.1 0 4.7 2.6 4.7 5.5m-7.7-.4c0 2.2.8 5.2 3.1 5.2 1.5 0 2.8-1.3 2.8-4.5 0-2.4-.9-5.2-3.1-5.2-1.3 0-2.8 1.1-2.8 4.5m24.7 3.3c0 1.7.1 1.7.8 1.8h.3c.1.1.1.4 0 .5-1.2-.1-2.4-.1-3.6 0-.1-.1-.1-.3 0-.5h.3c.6-.1.8-.1.8-1.8v-5.9c0-1.7-.1-1.7-.8-1.8h-.3c-.1-.1-.1-.4 0-.5 1.2.1 2.4.1 3.6 0 .1.1.1.3 0 .5h-.3c-.6.1-.8.1-.8 1.8zm6.3-5.9c0-1.7-.1-1.7-.8-1.8h-.2c-.1-.1-.1-.4 0-.5h6.1c.1.3.1 1.5.2 2.2-.1.1-.3.2-.4.1-.2-.9-.4-1.3-.8-1.4-.3-.1-.7-.1-1.1-.1h-.9c-.6 0-.6 0-.6.9v2.7c0 .4 0 .4.3.4h.6c1.2 0 1.4 0 1.5-.7l.1-.5c.1-.1.4-.1.4 0v3.3c-.1.1-.3.1-.4 0l-.1-.6c-.1-.7-.3-.7-1.5-.7h-.6c-.3 0-.3 0-.3.4v2c0 .8 0 1.4.2 1.6s.4.3 1.5.3c1.7 0 2-.4 2.5-1.7.1-.1.4-.1.4.1-.1.7-.4 1.9-.6 2.3h-6.8c-.1-.1-.1-.3 0-.5l.5-.1c.6-.1.8-.1.8-1.8zm17.9 5.5v2.8c-.1.2-.3.2-.5.2-.2-.3-.6-.9-1.6-2.2l-3.2-4.2c-.9-1.2-1.3-1.8-1.5-2v4.1c0 1.2 0 2.6.2 3.1.1.2.4.3.7.4h.3c.1.1.1.4 0 .5h-2.9c-.1-.1-.1-.3 0-.5l.3-.1c.3 0 .5-.1.6-.4.2-.5.2-1.9.2-3.1v-3.8c0-1.2 0-1.5-.4-1.9-.1-.1-.5-.3-.7-.3h-.2c-.1-.1-.1-.4.1-.5.5.1 1.3 0 1.6 0h.9c.2.7 1.7 2.7 2.2 3.3l1.3 1.7c.6.7 1.8 2.4 2 2.5v-3.5c0-1.2 0-2.6-.3-3.1-.1-.2-.3-.3-.7-.4h-.3c-.1-.1-.1-.4 0-.5h2.9c.1.1.1.3 0 .5l-.3.1c-.3 0-.5.1-.6.4-.2.5-.2 1.9-.2 3.1zm7.7-6.5c0-.7 0-.7-.4-.7h-.8c-1.2 0-1.6.2-2.1 1.5-.1.1-.4 0-.4-.1.2-.9.4-1.8.5-2.4l.1-.1c.1 0 .1 0 .1.1.1.4.3.4 1.2.4h5.5c.7 0 .9 0 1-.4.1 0 .1-.1.2-.1s.1 0 .2.1c-.1.6-.2 2-.2 2.5-.1.1-.3.2-.4 0-.2-1.2-.4-1.5-1.9-1.5h-.8c-.4 0-.4 0-.4.7v6.8c0 1.7.1 1.7.8 1.8l.5.1c.1.1.1.4 0 .5h-4.1c-.1-.1-.1-.4 0-.5l.6-.1c.6-.1.8-.1.8-1.8zm9.8 5.3c-.4 0-.3 0-.5.4l-.6 1.9c-.3.9-.2 1 .3 1.1l.4.1c.1.1.1.4 0 .5h-2.7c-.1-.1-.1-.3 0-.5l.4-.1c.4-.1.5-.2.7-.7.2-.4.4-1.1.7-1.9l1.8-5.6c.2-.5.3-.9.3-1.2.5-.1.9-.8.9-.8.1 0 .2 0 .2.1.2.7.4 1.5.6 2.2l1.9 6.6c.3 1.1.4 1.2 1.1 1.3h.2c.1.1.1.4 0 .5h-3.4c-.1-.1-.1-.4 0-.5h.3c.5-.1.5-.2.4-.8l-.6-2.2c-.1-.4-.2-.4-.6-.4zm1.6-.7c.4 0 .4 0 .3-.4l-.6-1.9c-.2-.8-.3-1.1-.4-1.3-.1.1-.2.5-.4 1.3l-.6 1.9c-.1.5-.1.5.2.5.1-.1 1.5-.1 1.5-.1zm9.6 1.9c0 .8 0 1.4.2 1.6s.4.3 1.5.3c1.5 0 1.7-.1 2.3-1.7.1-.1.4 0 .4.1-.1.7-.4 1.9-.6 2.3h-6.5c-.1-.1-.1-.4 0-.5l.4-.1c.6-.1.8-.1.8-1.8v-5.9c0-1.6-.1-1.7-.8-1.8l-.4-.1c-.1-.1-.1-.4 0-.5h3.7c.1.1.1.4 0 .5l-.3.1c-.6.1-.8.2-.8 1.8zm-80-46.8c-1.6-.1-3.3-.1-4.9 0l2.1 19.8h.9c0 .1 1.9-19.8 1.9-19.8zm.2-1.6c-1.7-.1-3.5-.1-5.3 0l-6.9-64.2 18.2 2.4zm6.4 2.8c-1.6-.5-3.2-.8-4.8-1l-2.1 19.8.8.2zm.5-1.5c-1.7-.5-3.4-.9-5.1-1.1l6.7-64.2 17.3 6.2zm-13.8.5c-1.6.2-3.2.6-4.8 1l6.2 19 .8-.2c.1 0-2.2-19.8-2.2-19.8zm-.2-1.6c-1.7.2-3.5.6-5.1 1.1l-20.2-61.3 18.3-1.5zm-6.3 3.2c-.8.3-1.5.6-2.2.9-.8.3-1.5.7-2.3 1.1l10.1 17.2.8-.4c0 .1-6.4-18.8-6.4-18.8zm-.5-1.5c-1.7.6-3.3 1.3-4.8 2.2l-32.5-55.8 17.6-5.2zm-5.5 4.4c-.7.4-1.3.9-2 1.3-.7.5-1.3 1-2 1.6l13.4 14.7.7-.5c.1.1-10.1-17.1-10.1-17.1zm-.8-1.4c-.7.4-1.4.9-2.1 1.4s-1.4 1.1-2.1 1.7l-43.6-47.7 16.1-8.8zm-4.4 5.5c-1.2 1.1-2.3 2.4-3.3 3.7l16.2 11.6.6-.6zm-1.2-1.2c-1.3 1.2-2.4 2.5-3.5 3.9l-52.5-37.5 13.9-12zm-3.1 6.4c-.9 1.4-1.7 2.8-2.4 4.3l18.2 7.9.4-.7zm-1.4-1c-1 1.5-1.9 3-2.6 4.6l-59.2-25.8 11.1-14.6zm42.9-9.2c-1.4-.8-2.9-1.5-4.5-2l-6.2 19 .8.4c0-.1 9.8-17.4 9.9-17.4zm.8-1.4c-1.5-.8-3.1-1.6-4.8-2.1l20-61.4 15.6 9.7c-.1-.1-30.8 53.8-30.8 53.8zm4.7 5.2c-.6-.5-1.2-1-1.9-1.5s-1.4-1-2.1-1.4l-10 17.3.7.5c0-.1 13.3-14.9 13.3-14.9zm1.1-1.3c-.6-.6-1.3-1.1-2-1.6s-1.5-1-2.2-1.5l32.4-55.9 13.3 12.7c-.2.1-41.5 46.3-41.5 46.3zm3.4 6.1c-1-1.3-2.1-2.5-3.3-3.7l-13.3 14.8.6.6zm1.4-.9c-1.1-1.4-2.2-2.7-3.5-3.9l43.3-47.9 10.3 15.2zm2.1 6.6c-.3-.7-.7-1.4-1.1-2.1s-.9-1.4-1.3-2.1l-16.2 11.6.4.7zm1.5-.6c-.7-1.6-1.6-3.1-2.6-4.6l52.4-37.8 6.9 17z"/></g></svg>